<svg xmlns="http://www.w3.org/2000/svg" viewBox="0 0 512 512">
  <g fill="rgb(14,165,233)">
    <g transform="translate(0,512) scale(0.1,-0.1)" stroke="none">
<path d="M2024 5111 c-75 -19 -90 -54 -69 -164 26 -136 24 -497 -4 -544 -9
-16 -10 -15 -11 7 0 55 -108 130 -165 116 -18 -5 -25 -1 -30 14 -9 28 -50 54
-75 47 -11 -3 -20 0 -20 6 0 21 -49 60 -66 53 -18 -7 -15 -52 4 -48 6 1 12 -2
12 -8 0 -5 10 -10 21 -10 17 0 20 -5 16 -21 -13 -50 43 -108 78 -79 8 7 19 10
22 6 4 -4 2 -11 -5 -15 -17 -10 -4 -42 17 -40 9 1 29 -3 44 -9 16 -7 31 -12
35 -12 4 0 27 -16 51 -35 24 -19 47 -35 50 -35 3 0 5 -36 3 -80 -3 -67 0 -86
17 -114 12 -18 21 -45 21 -58 0 -14 7 -42 15 -61 20 -49 19 -84 -5 -114 -11
-14 -20 -32 -20 -39 0 -30 -72 -87 -152 -118 -42 -17 -64 -45 -73 -98 -8 -41
-3 -44 41 -28 15 6 69 12 121 15 120 5 207 15 214 26 3 5 21 4 40 -1 18 -6 57
-9 84 -9 28 1 60 -1 73 -5 14 -5 22 -3 22 5 0 9 3 9 14 0 8 -7 25 -9 40 -5 14
3 34 3 43 -1 10 -4 34 -9 53 -10 19 -1 43 -6 53 -10 21 -9 21 -7 2 39 -16 37
-35 48 -35 20 0 -12 -3 -14 -12 -6 -7 5 -22 12 -33 14 -14 3 -9 7 18 12 20 5
37 13 37 18 0 6 -11 8 -25 6 -14 -3 -28 -1 -31 4 -3 5 -18 8 -32 7 -93 -7
-177 32 -196 92 -18 53 -22 159 -6 159 6 0 10 13 10 29 0 17 4 32 9 36 6 3 10
13 10 23 -1 17 8 77 11 77 1 0 3 13 5 28 3 21 0 27 -10 23 -8 -3 -16 0 -19 7
-2 7 -5 2 -5 -11 -1 -22 -31 -64 -31 -43 0 5 5 13 10 16 6 4 10 12 9 18 -4 31
2 37 26 31 22 -5 24 -3 23 22 -1 16 2 37 6 46 5 11 1 23 -13 35 -12 9 -21 23
-21 30 0 8 -9 39 -21 71 -22 58 -29 364 -13 509 14 124 -63 194 -182 164z"/>
<path d="M3125 5095 c-54 -15 -67 -28 -96 -93 -20 -46 -13 -82 16 -82 8 0 15
-7 15 -15 0 -18 21 -19 73 -4 31 8 37 14 32 30 -5 15 -3 18 12 13 17 -5 17 -5
-1 6 -15 10 -16 14 -5 21 25 15 38 10 41 -18 5 -42 32 10 29 55 -1 20 3 32 11
32 7 1 24 10 38 21 52 44 -51 65 -165 34z"/>
<path d="M901 5060 c-10 -5 -10 -8 1 -12 7 -3 14 -18 16 -33 1 -16 13 -48 27
-73 14 -24 25 -49 25 -54 0 -29 74 -62 130 -56 31 3 40 0 40 -12 1 -30 37 -61
63 -55 19 5 25 2 30 -14 7 -29 53 -28 86 2 24 22 24 22 8 -3 -32 -46 12 -92
53 -55 20 18 37 20 22 3 -5 -7 -12 -21 -14 -32 -4 -25 63 -34 82 -11 19 23 33
18 26 -10 -7 -29 7 -32 49 -13 39 18 4 79 -38 65 -6 -2 -20 7 -30 20 -10 13
-27 23 -38 23 -10 0 -19 7 -19 15 0 17 -36 39 -55 31 -7 -2 -15 4 -18 14 -3
10 -18 21 -36 25 -17 4 -31 11 -31 16 0 20 -42 49 -70 49 -23 0 -30 5 -30 19
0 34 -92 108 -156 126 -33 9 -71 20 -85 25 -14 4 -32 5 -38 0z"/>
<path d="M2891 4866 c-7 -8 -22 -17 -35 -20 -22 -5 -46 -23 -120 -88 -31 -28
-31 -28 -6 -48 27 -21 21 -26 -12 -9 -36 19 -58 -14 -27 -41 24 -21 24 -21 -3
-4 -51 30 -77 -5 -41 -56 17 -24 17 -24 -7 -7 -33 23 -62 21 -78 -3 -18 -29
11 -74 38 -60 10 6 28 10 40 10 12 0 39 18 61 41 21 22 43 38 47 35 5 -3 21 7
35 22 27 28 62 58 160 138 66 54 67 56 28 83 -34 24 -64 27 -80 7z"/>
<path d="M3940 4800 c-8 -5 -25 -10 -37 -10 -34 0 -28 -17 12 -31 34 -13 49
-39 21 -39 -17 0 -66 -56 -66 -75 0 -7 -7 -15 -15 -19 -8 -3 -15 -12 -15 -21
0 -8 -4 -15 -10 -15 -15 0 -12 16 5 34 25 25 13 61 -21 64 -42 4 -87 -15 -80
-33 3 -8 1 -15 -4 -15 -5 0 -8 -10 -8 -22 3 -55 -4 -96 -11 -63 -10 51 -62 48
-97 -4 -15 -23 -30 -41 -34 -41 -4 0 -7 -11 -7 -25 0 -34 14 -31 37 8 28 48
38 57 65 57 27 0 28 -4 15 -35 -8 -19 -9 -19 -9 3 -1 13 -7 22 -17 22 -10 0
-14 -6 -10 -15 3 -9 0 -15 -10 -15 -11 0 -13 -6 -9 -21 5 -15 4 -19 -4 -15 -6
4 -11 0 -11 -8 0 -9 7 -16 16 -16 8 0 12 -4 9 -10 -3 -5 -2 -10 2 -10 5 0 14
5 21 10 9 7 9 7 2 -2 -15 -18 -12 -41 4 -35 9 4 17 -2 21 -14 8 -25 31 -24 79
4 53 30 54 42 9 66 -21 10 -44 29 -51 41 -8 14 -9 19 -2 15 6 -4 18 1 26 11
14 18 14 18 5 -3 -15 -30 -14 -32 14 -29 13 2 23 -2 22 -8 -1 -6 4 -10 11 -8
8 1 11 -2 8 -7 -10 -16 46 -19 81 -5 19 8 38 12 43 9 5 -3 12 0 15 6 4 5 13 8
21 5 7 -3 16 -1 19 4 3 5 12 7 20 3 8 -3 15 0 15 6 0 6 -4 11 -10 11 -5 0 -10
6 -10 13 0 48 -51 55 -154 22 -49 -15 -49 -15 -31 5 10 11 26 20 34 18 29 -4
81 13 93 31 26 36 108 76 108 53 0 -28 10 -52 22 -52 11 0 7 41 -7 74 -8 18
-7 18 13 0 15 -12 22 -30 22 -52 0 -20 5 -32 11 -30 6 2 10 7 10 11 -1 4 -1
21 -1 38 0 60 -150 186 -190 159z"/>
<path d="M391 4646 c-6 -8 -26 -20 -44 -27 -18 -7 -47 -24 -66 -36 -19 -13
-45 -23 -58 -23 -31 0 -36 -16 -20 -70 16 -55 47 -69 47 -21 0 39 45 44 76 10
10 -12 40 -32 67 -45 57 -30 58 -31 6 -30 -87 2 -59 -99 34 -123 156 -39 253
155 129 257 -35 27 -101 -4 -87 -41 4 -8 -15 5 -41 29 -54 49 -49 71 22 94 19
7 34 15 34 20 0 22 -81 27 -99 6z"/>
<path d="M2428 4535 c-31 -14 -68 -36 -83 -50 -14 -15 -41 -33 -61 -41 -25
-11 -34 -20 -30 -30 3 -9 6 -23 6 -32 0 -31 16 -45 36 -34 11 5 42 20 71 32
28 13 69 40 89 61 24 24 44 37 54 34 9 -3 26 5 39 19 24 25 21 46 -5 46 -8 0
-14 5 -14 10 0 17 -42 10 -102 -15z"/>
<path d="M3525 4420 c-30 -32 -30 -40 3 -43 12 0 18 -6 15 -14 -3 -7 -1 -13 5
-13 6 0 13 6 15 13 4 9 6 9 6 0 1 -6 -4 -15 -10 -18 -7 -5 -4 -14 8 -28 10
-12 -1 -5 -25 16 -47 41 -48 42 -106 25 -42 -12 -76 -34 -76 -50 0 -5 -11 -33
-25 -61 -24 -51 -65 -203 -65 -242 0 -11 -18 -55 -40 -97 -38 -76 -39 -79 -29
-134 9 -48 8 -64 -7 -103 -10 -25 -18 -49 -19 -53 0 -3 -3 -10 -7 -14 -13 -12
-9 -22 12 -29 11 -3 20 -12 20 -19 0 -59 64 -39 86 27 28 86 84 227 124 312
20 44 40 102 43 129 3 29 12 55 21 61 9 7 16 17 16 22 0 6 14 29 30 51 17 23
30 45 30 48 0 6 30 75 37 83 1 2 9 -2 18 -9 13 -11 23 -10 55 5 73 33 48 96
-59 153 -34 18 -44 15 -76 -18z"/>
<path d="M640 4405 c-5 -14 -13 -38 -16 -52 -4 -16 -25 -37 -55 -56 -63 -39
-62 -53 7 -83 125 -55 215 37 154 156 -31 61 -74 78 -90 35z"/>
<path d="M776 4276 c4 -19 0 -27 -25 -42 -17 -10 -31 -24 -31 -30 0 -6 -7 -17
-15 -24 -24 -20 -19 -65 10 -80 14 -7 28 -11 31 -7 4 3 16 2 26 -4 27 -15 103
62 94 95 -3 12 -9 37 -12 57 -4 26 -14 40 -31 48 -40 18 -54 14 -47 -13z"/>
<path d="M863 4132 c-12 -15 -35 -45 -53 -66 -38 -49 -35 -77 20 -156 20 -30
52 -83 71 -117 18 -35 37 -63 41 -63 5 0 4 -9 -2 -20 -6 -11 -7 -20 -3 -20 4
0 9 -24 11 -54 10 -180 82 -276 153 -205 31 31 41 21 19 -21 -36 -71 -22 -96
81 -145 31 -14 67 -37 80 -51 12 -13 28 -24 36 -24 7 0 13 -3 13 -7 0 -5 21
-16 46 -27 24 -10 52 -25 61 -34 19 -19 46 -5 51 27 2 11 8 21 13 21 5 0 9 7
9 16 0 20 46 120 59 129 19 11 12 21 -36 52 -72 45 -86 52 -155 67 -35 8 -91
26 -125 40 -59 25 -65 26 -92 12 -40 -21 -55 17 -40 101 13 71 7 104 -31 164
-34 52 -38 67 -41 142 -1 29 -12 80 -25 114 -13 34 -24 72 -24 85 0 69 -92 96
-137 40z"/>
<path d="M1879 4051 c-76 -26 -118 -81 -140 -179 -16 -75 24 -132 60 -88 7 8
26 18 43 21 71 16 113 80 116 178 4 99 5 98 -79 68z"/>
<path d="M2267 4020 c-4 -16 -4 -37 -1 -45 4 -8 1 -15 -5 -15 -8 0 -6 -11 6
-30 17 -30 33 -39 33 -20 0 6 5 10 10 10 6 0 4 -12 -4 -29 -16 -29 -7 -51 21
-51 7 0 12 -3 12 -7 -4 -25 4 -33 31 -33 21 0 30 -5 30 -17 0 -15 1 -15 19 1
17 16 20 16 35 0 9 -9 20 -14 23 -10 3 3 -4 14 -16 25 -21 19 -21 19 0 24 20
5 20 7 5 22 -9 9 -23 14 -31 11 -8 -3 -15 -1 -15 5 0 19 31 21 50 4 10 -9 24
-14 29 -10 19 11 12 41 -15 66 -15 13 -37 41 -50 62 -13 20 -32 37 -42 37 -9
0 -35 7 -57 15 -56 20 -62 19 -68 -15z"/>
<path d="M1864 3615 c-176 -22 -170 -20 -204 -78 -43 -76 -20 -180 24 -108 13
21 126 63 205 76 47 8 98 17 114 20 64 11 20 -14 -50 -30 -74 -15 -114 -27
-158 -45 -11 -5 -49 -19 -85 -31 -36 -12 -70 -28 -76 -36 -6 -7 -16 -13 -23
-13 -6 0 -11 -8 -11 -17 0 -9 -16 -45 -35 -80 -76 -138 -90 -352 -23 -351 101
0 325 -39 409 -72 47 -19 58 -20 103 -9 28 7 61 12 74 11 12 -1 22 3 22 8 0 5
7 7 16 3 17 -6 94 16 94 27 0 4 27 13 60 19 59 12 82 31 37 31 -18 0 -23 5
-22 22 2 28 25 36 25 9 0 -23 15 -28 23 -8 3 6 6 -1 6 -16 1 -25 4 -27 24 -21
12 4 113 7 224 6 203 -2 203 -2 199 120 -6 164 -27 221 -113 312 -65 68 -141
95 -169 59 -13 -17 -14 -17 -8 0 5 13 1 17 -15 17 -12 0 -29 4 -39 9 -9 5 -52
17 -95 26 -43 9 -77 18 -75 20 8 9 201 -16 263 -34 83 -24 85 -23 85 39 0 67
-29 95 -105 99 -22 1 -58 6 -80 12 -63 16 -504 19 -621 4z m268 -567 c3 -48 0
-68 -8 -68 -6 0 -11 6 -10 13 0 6 -3 57 -7 113 -9 116 3 179 14 74 4 -36 9
-95 11 -132z"/>
<path d="M3080 3558 c-11 -18 -20 -36 -20 -40 0 -5 -11 -8 -24 -8 -42 0 -74
-18 -149 -81 -111 -94 -113 -99 -70 -173 19 -33 37 -69 40 -78 7 -23 20 -23
98 3 77 24 130 77 158 156 10 28 26 59 36 70 10 10 20 25 23 33 2 8 15 15 29
15 41 0 35 32 -17 85 -57 58 -77 62 -104 18z"/>
<path d="M2495 2904 c-22 -8 -59 -15 -82 -15 -45 -1 -65 -15 -42 -30 7 -4 10
-12 5 -16 -5 -4 -11 -2 -13 5 -19 53 -96 5 -81 -51 12 -45 68 -67 68 -27 0 13
1 13 10 0 6 -9 5 -17 -3 -22 -8 -5 -8 -13 0 -30 18 -39 44 -158 53 -243 5 -44
13 -92 18 -106 10 -24 29 -169 35 -252 3 -49 21 -53 25 -5 2 20 10 42 19 50
15 12 15 9 9 -27 -11 -63 -28 -115 -38 -115 -14 0 -9 -55 9 -79 10 -15 11 -21
3 -16 -11 7 -12 -3 -6 -51 4 -32 11 -102 16 -154 5 -52 13 -96 19 -98 6 -2 11
-8 11 -13 0 -6 -5 -7 -11 -3 -15 9 -2 -191 13 -220 5 -10 6 -16 1 -13 -4 3 -8
-155 -9 -351 0 -343 -1 -359 -22 -412 -12 -30 -20 -42 -17 -26 3 15 8 41 11
56 5 23 2 28 -21 34 -35 9 -35 10 -46 -70 -14 -101 -17 -90 -18 68 -1 78 -1
157 -1 173 0 17 2 136 6 266 6 222 -1 293 -21 229 -12 -39 -25 -19 -25 40 0
33 -4 60 -10 60 -5 0 -10 -17 -10 -39 0 -65 -10 -100 -27 -94 -13 5 -15 -1
-12 -34 5 -48 -26 -40 -36 9 -4 15 -11 31 -17 34 -11 7 -9 -35 13 -256 5 -52
11 -180 14 -285 7 -239 20 -356 42 -373 59 -44 287 6 313 69 7 16 18 29 25 29
7 0 25 20 41 45 15 25 34 45 41 45 16 0 87 33 91 43 2 4 10 7 18 7 9 0 12 5 8
12 -4 7 -3 8 4 4 34 -21 251 172 333 295 68 103 109 177 109 197 0 49 45 228
62 249 13 17 19 145 6 160 -6 8 -5 19 2 33 9 18 8 25 -6 41 -9 10 -14 22 -11
26 4 3 7 1 7 -5 0 -7 4 -12 9 -12 17 0 6 45 -13 48 -10 2 -16 0 -12 -6 3 -5
-1 -12 -9 -16 -25 -9 -17 11 14 33 34 24 35 52 3 81 -12 12 -20 25 -17 31 4 5
1 9 -5 9 -6 0 -8 5 -5 10 4 6 -2 39 -13 73 -11 34 -23 84 -27 112 -4 27 -13
62 -21 77 -8 15 -14 29 -13 30 8 12 -28 78 -42 78 -9 0 -20 7 -23 16 -9 24 -7
31 5 12 31 -55 25 12 -9 92 -6 14 -18 51 -28 83 -18 60 -30 72 -37 35 -2 -13
-5 1 -6 30 -1 37 -9 67 -26 95 -25 44 -49 162 -43 218 4 38 -28 66 -82 73 -57
9 -123 26 -136 37 -26 22 -287 32 -339 13z m-82 -56 c-5 -26 21 -67 33 -55 5
4 3 17 -4 27 -17 27 -15 40 6 40 13 0 14 -2 4 -9 -10 -6 -9 -14 5 -39 18 -32
33 -41 33 -21 0 5 5 7 10 4 6 -3 10 -15 10 -25 0 -10 7 -25 15 -34 16 -16 20
-36 7 -36 -5 0 -9 -7 -9 -15 0 -8 4 -15 9 -15 4 0 8 -20 8 -45 0 -62 19 -147
32 -139 6 4 7 25 3 58 -4 28 -9 66 -11 84 -2 19 -8 59 -14 89 -5 31 -8 59 -5
61 3 3 5 0 5 -6 0 -6 14 -33 31 -59 17 -26 28 -39 24 -28 -4 11 -11 38 -16 60
-5 22 -11 50 -14 62 -4 17 -1 21 9 17 8 -3 16 2 19 13 3 10 5 -3 6 -29 1 -39
4 -48 19 -48 14 0 15 -2 2 -10 -13 -9 -8 -14 11 -12 9 2 41 -127 34 -138 -3
-5 -1 -11 5 -15 6 -4 8 -11 4 -16 -3 -5 2 -23 10 -41 9 -17 16 -39 16 -49 0
-10 10 -21 21 -24 15 -5 18 -9 9 -15 -16 -10 4 -76 25 -84 8 -3 15 -14 15 -24
0 -10 11 -41 25 -68 30 -59 31 -63 5 -33 -19 24 -19 24 -21 -1 -1 -14 -3 -36
-4 -50 -3 -24 6 -168 25 -390 18 -208 26 -260 41 -260 5 0 9 -7 9 -15 0 -41
29 -12 32 33 3 47 3 47 17 20 27 -52 34 -32 28 75 -13 205 -38 375 -58 380 -9
3 -19 15 -21 28 -5 39 -26 34 -31 -8 -2 -21 -3 -9 -1 27 6 101 8 114 22 128
18 20 15 80 -6 110 -32 46 -34 52 -18 46 25 -10 20 21 -16 95 -28 59 -32 63
-38 41 -9 -35 -22 -9 -49 95 -25 93 -26 121 -5 83 12 -23 34 -38 34 -24 0 13
-25 72 -33 77 -5 4 -6 24 -1 50 8 44 8 44 20 -21 7 -35 17 -66 23 -68 6 -2 11
-12 11 -22 0 -20 27 -46 37 -36 4 3 -1 30 -10 59 -19 63 -32 142 -18 112 5
-11 10 -28 10 -38 1 -11 7 -33 15 -50 20 -45 67 -190 62 -194 -2 -2 -13 19
-24 47 -32 77 -54 68 -28 -12 7 -24 19 -69 25 -100 11 -52 15 -58 37 -58 26 0
26 14 2 79 -5 13 -6 26 -3 29 3 3 5 0 5 -6 0 -7 5 -12 10 -12 17 0 11 81 -10
159 -12 40 -19 79 -17 85 2 6 7 -5 12 -24 4 -19 13 -48 20 -65 7 -16 15 -38
19 -47 9 -28 80 -26 73 2 -3 11 -2 20 3 20 4 0 6 12 3 28 -3 23 -2 24 6 7 5
-11 10 -29 10 -40 2 -45 22 -95 39 -95 13 0 17 -9 18 -42 0 -25 14 -77 33
-123 19 -44 38 -89 42 -100 34 -81 117 -366 123 -420 6 -52 19 -76 38 -72 12
4 18 1 15 -6 -2 -7 -11 -11 -21 -9 -20 4 -20 -9 -2 -70 8 -25 13 -48 11 -50
-9 -11 -15 -118 -6 -118 6 0 11 8 11 18 0 10 7 27 16 38 15 19 15 18 9 -3 -3
-12 -7 -37 -9 -56 -2 -19 -6 -40 -11 -46 -14 -23 13 -37 29 -15 13 17 14 14 5
-25 -12 -52 -16 -61 -32 -61 -8 0 -8 3 1 12 16 16 16 52 0 42 -7 -4 -8 -3 -4
4 4 7 3 12 -1 12 -14 0 -46 -98 -40 -120 3 -11 2 -20 -3 -20 -7 0 -13 -21 -22
-75 -2 -11 -5 -22 -9 -25 -3 -3 -18 -30 -33 -60 -35 -68 -86 -149 -107 -171
-10 -10 -20 -32 -24 -50 -8 -39 -23 -61 -36 -53 -5 3 -25 -11 -44 -32 -42 -45
-55 -41 -20 6 14 19 25 38 25 44 0 5 11 21 24 35 43 46 115 329 92 359 -7 10
-2 20 20 39 29 24 29 25 9 42 -19 16 -22 23 -31 65 -6 34 -14 30 -14 -7 0 -38
-8 -45 -27 -26 -8 8 -13 -1 -19 -37 -5 -33 -3 -49 5 -52 6 -2 11 -8 11 -13 0
-6 -4 -7 -10 -4 -11 7 -14 -8 -30 -115 -15 -103 -32 -182 -42 -203 -6 -12 -5
-17 4 -17 8 -1 7 -5 -4 -14 -10 -7 -18 -18 -18 -25 0 -24 -43 -102 -50 -91 -5
8 -21 10 -49 5 -47 -8 -54 4 -16 29 28 19 33 57 10 76 -8 7 -15 18 -14 24 0 7
2 6 6 -1 9 -24 30 -13 31 16 0 17 6 39 12 51 6 12 17 77 23 145 7 78 15 121
21 119 13 -5 15 -73 3 -91 -11 -18 -2 -30 28 -35 32 -6 31 -7 40 75 7 67 7 67
-39 67 -30 0 -46 4 -46 13 0 7 -9 29 -20 50 -11 20 -20 46 -20 56 0 26 -10 51
-20 51 -17 0 -20 -38 -5 -73 8 -20 15 -49 14 -64 -1 -22 -3 -19 -11 15 -10 48
-28 47 -28 -1 -1 -36 -38 -202 -39 -174 -3 50 -68 20 -75 -35 -11 -96 -9 -108
19 -108 25 0 37 27 47 100 2 14 3 -40 2 -120 0 -80 -4 -158 -8 -175 -7 -30 -7
-30 9 -5 10 15 14 18 11 7 -3 -10 -6 -27 -6 -38 0 -10 -6 -19 -14 -19 -19 0
-29 -29 -16 -45 15 -18 2 -23 -47 -17 -31 3 -43 9 -48 25 -6 19 -8 20 -12 5
-6 -23 -44 -5 -42 20 1 16 2 16 6 0 12 -48 23 -7 25 95 2 112 2 112 8 7 7
-141 14 -115 41 145 27 273 35 455 20 455 -6 0 -11 -15 -12 -32 -1 -33 -1 -33
-10 0 -10 35 -33 39 -36 6 0 -10 -9 -102 -18 -204 -9 -102 -17 -237 -19 -300
-1 -64 -6 -122 -11 -129 -7 -13 -27 -90 -42 -163 -3 -15 -12 -29 -19 -32 -16
-6 -14 86 5 279 31 302 41 449 32 458 -17 17 -33 -4 -27 -34 3 -16 2 -29 -3
-29 -5 0 -11 20 -13 45 -2 25 0 45 4 45 11 0 10 54 -1 83 -11 28 -25 160 -15
139 4 -9 10 -10 18 -2 10 7 16 3 24 -15 13 -28 27 -32 35 -10 4 8 -6 27 -23
44 -34 33 -37 41 -15 41 22 0 22 24 -2 248 -9 83 -20 152 -23 152 -4 0 -6 27
-4 61 3 49 0 65 -18 89 -19 26 -48 34 -33 9 4 -5 1 -17 -4 -26 -8 -13 -10 12
-11 91 0 79 -4 114 -14 125 -30 35 -45 161 -21 185 18 17 19 37 4 85 -18 56
-25 66 -45 63 -18 -2 -18 -2 -1 8 9 6 15 16 11 21 -4 6 -11 6 -19 -1 -11 -9
-12 -7 -8 9 6 23 36 14 46 -13 4 -9 14 -12 26 -9 12 3 21 1 22 -3 1 -5 3 -29
5 -53 4 -42 10 -59 18 -50 16 18 -8 130 -28 128 -35 -4 -101 64 -87 90 15 28
29 27 24 -1z"/>
<path d="M2930 2544 c0 -14 85 -184 92 -184 27 0 3 160 -27 182 -12 9 -65 11
-65 2z"/>
<path d="M2606 2398 c-6 -45 6 -93 36 -138 9 -14 19 -35 23 -47 3 -13 11 -23
16 -23 12 0 3 53 -21 130 -10 30 -21 70 -25 88 -9 44 -22 40 -29 -10z"/>
<path d="M2952 2388 c0 -24 -1 -52 -3 -63 -1 -11 6 -49 14 -85 18 -74 55 -270
83 -435 3 -16 8 -37 11 -45 3 -8 5 -41 4 -72 -2 -39 1 -58 9 -58 6 0 8 -5 5
-10 -11 -18 -15 -160 -5 -160 6 0 10 3 11 8 0 4 2 36 5 72 3 35 9 69 14 75 6
7 8 14 5 17 -3 3 0 10 7 16 10 8 12 1 9 -34 -2 -27 1 -44 8 -44 6 0 11 8 11
18 0 9 5 24 11 32 8 11 9 4 6 -27 -6 -47 -3 -50 20 -28 12 13 14 29 8 83 -4
37 -9 81 -10 99 -1 18 -8 40 -16 50 -11 13 -11 15 0 9 10 -6 12 -4 8 10 -3 11
-13 55 -22 99 -9 44 -21 90 -26 103 -5 13 -9 33 -10 45 0 12 -9 40 -20 62 -21
44 -21 35 -3 -71 5 -26 3 -35 -5 -30 -6 4 -14 25 -17 47 -10 61 -26 59 -19 -3
9 -80 -13 -37 -30 59 -8 43 -17 93 -21 111 -4 21 -3 32 5 32 18 0 13 64 -9
114 -24 57 -37 59 -38 4z"/>
<path d="M2866 2363 c-12 -12 -6 -48 14 -80 11 -18 18 -38 16 -45 -1 -7 -1 -9
2 -5 2 4 10 3 18 -4 21 -18 23 -9 12 49 -7 32 -16 52 -24 52 -8 0 -14 6 -14
14 0 17 -14 28 -24 19z"/>
<path d="M2597 2223 c-15 -15 -8 -153 8 -153 18 0 20 -16 4 -26 -15 -9 -4
-166 13 -197 6 -12 11 -38 9 -57 -1 -20 5 -79 13 -133 9 -53 16 -117 16 -142
0 -39 3 -45 21 -45 20 0 21 3 15 56 -4 36 -3 53 4 49 5 -3 10 -13 10 -21 0 -8
4 -14 10 -14 10 0 5 200 -7 255 -4 17 -5 58 -4 92 2 34 -1 68 -5 75 -5 7 -7
45 -5 84 3 68 -30 126 -57 100 -3 -3 -1 -6 4 -6 5 0 9 -12 9 -27 0 -16 4 -45
8 -65 5 -22 4 -38 -1 -38 -15 0 -32 128 -20 155 17 37 -20 84 -45 58z"/>
<path d="M2896 2133 c10 -85 43 -117 81 -79 18 17 -33 136 -58 136 -29 0 -29
0 -23 -57z"/>
<path d="M2722 2080 c2 -55 4 -60 25 -60 29 0 32 6 26 68 -9 86 -55 79 -51 -8z"/>
<path d="M2917 2013 c-21 -36 20 -158 53 -158 37 0 47 68 20 139 -9 25 -62 38
-73 19z"/>
<path d="M2737 1983 c-24 -23 -7 -134 21 -131 28 3 30 10 23 116 -1 21 -29 31
-44 15z"/>
<path d="M3180 1921 c0 -47 34 -150 46 -140 15 12 19 51 7 63 -5 4 -8 21 -8
38 0 22 -6 33 -22 39 -13 5 -23 5 -23 0z"/>
<path d="M2744 1824 c-9 -4 -8 -151 1 -162 22 -25 55 16 55 67 0 92 -12 113
-56 95z"/>
<path d="M2996 1821 c-3 -4 -18 -6 -32 -3 -27 5 -27 5 -21 -43 4 -26 7 -61 7
-76 0 -27 3 -29 41 -29 42 0 42 0 35 53 -3 28 -6 64 -6 80 0 26 -13 36 -24 18z"/>
<path d="M3215 1683 c3 -76 1 -73 31 -73 27 0 30 79 3 88 -5 2 -6 8 -3 14 6 9
-12 27 -27 28 -3 0 -5 -26 -4 -57z"/>
<path d="M2750 1596 c0 -59 15 -75 26 -29 9 33 22 9 23 -39 1 -16 6 -28 11
-28 11 0 12 81 1 120 -16 57 -61 39 -61 -24z"/>
<path d="M2967 1644 c-8 -9 -9 -108 -1 -117 11 -11 33 4 27 19 -3 8 0 14 6 14
6 0 11 -9 11 -20 0 -22 15 -27 22 -7 24 71 -23 152 -65 111z"/>
<path d="M3216 1543 c2 -95 3 -97 19 -83 8 7 15 9 15 4 1 -34 20 31 20 67 0
45 -11 58 -50 59 -3 0 -5 -21 -4 -47z"/>
<path d="M2785 1414 c-8 -69 1 -92 29 -81 26 10 23 147 -3 147 -16 0 -20 -10
-26 -66z"/>
<path d="M2742 1258 c-12 -62 -10 -68 28 -68 31 0 50 35 50 91 0 61 -65 41
-78 -23z"/>
<path d="M3168 1242 c-2 -16 2 -34 10 -41 7 -7 10 -16 6 -20 -4 -3 -9 0 -11 7
-9 23 -23 12 -23 -18 0 -16 -4 -30 -8 -30 -4 0 -9 -13 -10 -29 -1 -16 -9 -42
-17 -58 -28 -52 -19 -72 15 -33 40 47 46 68 24 85 -18 12 -17 14 9 26 15 7 27
18 27 26 0 7 5 13 11 13 5 0 7 4 4 10 -3 5 1 20 10 33 17 26 9 43 -12 26 -10
-9 -13 -7 -13 10 0 31 -17 26 -22 -7z"/>
<path d="M2931 1070 c-19 -86 -8 -110 36 -82 11 7 33 91 33 123 0 41 -59 5
-69 -41z"/>
<path d="M2719 978 c0 -7 -2 -32 -4 -55 -4 -47 10 -56 38 -25 28 31 23 92 -8
92 -14 0 -25 -6 -26 -12z"/>
<path d="M2909 933 c0 -16 -2 -37 -4 -48 -12 -61 31 -50 53 14 18 52 15 61
-18 61 -26 0 -30 -4 -31 -27z"/>
<path d="M1477 2878 c-17 -6 -26 -15 -23 -23 3 -8 -2 -19 -10 -26 -12 -10 -13
-9 -8 5 8 20 -3 21 -22 1 -9 -8 -13 -19 -9 -25 3 -6 -1 -7 -9 -4 -9 3 -16 1
-16 -5 0 -6 5 -11 10 -11 6 0 10 -5 10 -11 0 -8 -5 -7 -15 1 -13 11 -18 11
-28 0 -9 -10 -9 -13 0 -17 8 -3 1 -17 -19 -39 -30 -33 -32 -39 -33 -119 -1
-97 -1 -96 21 -52 22 42 74 102 74 84 0 -8 -3 -17 -7 -21 -4 -3 -8 -16 -10
-28 -2 -12 -7 -25 -12 -28 -11 -7 -31 -68 -31 -94 0 -48 42 21 61 100 22 92
23 108 8 98 -12 -7 35 71 59 99 8 9 12 20 8 24 -7 7 -34 -19 -55 -52 -11 -18
-12 -18 -7 -1 7 19 86 146 92 146 2 0 -1 -11 -8 -25 -8 -17 -8 -28 0 -37 7 -9
6 -20 -3 -38 -17 -30 -18 -40 -6 -40 6 0 22 23 38 52 15 28 35 53 43 55 10 3
9 1 -2 -7 -10 -6 -18 -16 -18 -22 0 -7 5 -6 15 2 11 9 15 9 15 1 0 -6 -10 -16
-22 -21 -13 -5 -17 -9 -10 -9 18 -1 15 -18 -8 -41 -11 -11 -16 -20 -11 -20 5
0 7 -9 4 -19 -3 -11 -10 -18 -17 -15 -8 3 -17 -15 -25 -48 -10 -38 -11 -53 -2
-56 13 -4 14 -43 2 -74 -33 -79 -71 -229 -65 -252 3 -15 2 -26 -4 -26 -5 0
-12 -9 -15 -20 -8 -32 1 -24 37 33 37 58 56 148 37 171 -9 10 -8 15 3 19 8 3
17 21 21 39 12 60 46 158 56 158 5 0 8 -5 7 -11 -5 -22 20 -19 26 3 9 36 7 70
-4 63 -5 -3 -10 -15 -10 -26 0 -10 -4 -19 -10 -19 -17 0 -11 24 15 63 26 38
39 48 29 23 -3 -8 4 -16 17 -19 19 -5 20 -8 9 -21 -7 -9 -10 -16 -7 -16 3 0
-1 -26 -8 -57 -31 -137 -23 -231 13 -145 8 18 10 20 6 5 -6 -27 12 -31 20 -5
3 10 8 48 10 85 3 37 8 77 11 88 4 13 2 25 -5 29 -8 5 0 14 23 29 20 12 38 34
45 53 10 33 10 33 11 0 1 -23 5 -31 14 -26 10 6 10 4 0 -7 -27 -28 -13 -85 14
-58 9 9 9 1 2 -27 -5 -22 -12 -61 -15 -88 -4 -27 -13 -64 -20 -82 -18 -43 -18
-125 0 -150 18 -24 30 -13 33 34 2 20 6 62 9 92 3 40 2 51 -5 40 -19 -27 -13
11 10 60 12 25 23 73 26 107 6 61 24 96 38 73 5 -8 11 -7 23 2 12 10 14 10 8
1 -13 -23 8 -13 43 20 35 32 35 32 3 -9 -30 -39 -52 -94 -37 -94 4 0 14 8 21
18 22 29 16 -4 -11 -61 -22 -47 -53 -233 -40 -245 9 -10 25 12 31 43 3 19 10
35 15 35 13 0 11 -38 -3 -42 -14 -5 -13 -115 2 -133 5 -7 8 -25 5 -41 -17
-105 -9 -194 17 -194 5 0 8 98 8 218 -1 203 13 452 26 473 21 35 40 -2 34 -70
-1 -19 2 -23 18 -19 18 5 18 3 5 -44 -23 -77 -5 -355 25 -391 9 -10 10 -17 2
-22 -5 -3 -10 -1 -10 4 0 6 -7 11 -16 11 -10 0 -14 -6 -10 -17 6 -24 15 -126
21 -253 3 -58 7 -121 10 -140 2 -19 7 -80 11 -135 3 -56 10 -103 17 -107 7 -4
7 -11 1 -20 -5 -7 -7 -31 -4 -53 6 -40 6 -40 15 -10 4 17 14 39 21 50 8 11 14
44 14 75 1 42 3 51 11 38 5 -10 18 -18 27 -19 10 0 12 -3 5 -6 -7 -2 -13 -9
-13 -14 0 -6 4 -8 9 -5 12 8 21 -72 11 -98 -8 -20 -9 -20 -10 -1 0 15 -3 17
-9 7 -12 -19 -13 -210 -1 -232 6 -11 6 -21 1 -24 -5 -3 -21 32 -36 79 -25 76
-57 123 -41 61 3 -14 11 -60 17 -103 6 -43 12 -80 14 -83 2 -3 6 -33 10 -65 3
-33 9 -71 12 -85 3 -14 7 -29 7 -35 1 -5 6 -35 11 -65 5 -30 9 -57 10 -60 0
-3 5 -12 10 -20 5 -8 8 -25 6 -37 -1 -13 1 -23 6 -23 4 0 8 -37 9 -83 0 -45 4
-101 7 -124 5 -27 3 -43 -3 -43 -5 0 -10 15 -10 34 0 44 -9 66 -25 66 -21 0
-26 -16 -14 -47 35 -87 41 -149 12 -118 -9 10 -9 15 -1 17 7 3 6 13 -4 33 -18
35 -58 201 -58 239 0 15 -7 40 -15 55 -8 16 -12 31 -10 33 3 3 -2 49 -10 104
-19 125 -19 135 0 110 8 -11 15 -35 15 -53 0 -27 4 -33 21 -33 17 0 19 4 13
23 -4 12 -6 36 -5 54 1 17 -3 34 -9 38 -5 3 -10 21 -10 40 0 19 -5 37 -11 41
-14 8 -31 -18 -19 -30 4 -4 6 -15 3 -22 -3 -8 0 -14 7 -14 6 0 8 -4 5 -10 -14
-22 -23 -7 -29 48 -10 84 -17 113 -26 107 -4 -2 -10 11 -13 29 -17 105 -50 81
-42 -30 11 -147 10 -142 20 -199 5 -27 8 -56 7 -62 -2 -7 2 -13 8 -13 6 0 9
-4 5 -9 -11 -18 6 -90 20 -85 7 3 16 -3 19 -13 12 -39 27 -131 32 -194 2 -37
12 -91 22 -122 14 -42 16 -54 5 -50 -7 3 -13 9 -13 14 0 5 -7 9 -15 9 -8 0
-15 7 -15 15 0 8 -4 15 -10 15 -5 0 -10 6 -10 13 0 7 -9 23 -20 35 -12 12 -18
22 -15 22 3 0 -2 17 -11 37 -30 70 -69 215 -79 288 -17 140 -30 196 -60 260
-41 87 -68 178 -52 172 7 -2 13 -12 15 -23 6 -35 35 -104 43 -104 16 0 -3 216
-20 233 -10 10 -25 -59 -16 -73 3 -6 -1 -10 -9 -10 -8 0 -20 9 -26 21 -28 51
-12 -89 46 -416 3 -16 7 -41 9 -54 2 -13 8 -27 12 -30 4 -3 8 -10 9 -16 1 -37
18 -85 31 -89 9 -4 13 -13 9 -22 -3 -8 -2 -12 3 -9 14 8 25 -15 14 -26 -12
-12 5 -65 47 -150 31 -60 31 -60 -2 -38 -19 12 -44 44 -58 70 -13 27 -28 49
-32 49 -4 0 -8 7 -8 15 0 8 -7 15 -15 15 -12 0 -9 -13 16 -61 16 -34 27 -64
23 -68 -4 -3 -9 0 -11 7 -3 6 -9 12 -14 12 -4 0 -6 -7 -3 -15 4 -8 1 -15 -5
-15 -7 0 -10 13 -7 35 3 19 0 37 -5 40 -5 4 -9 15 -9 25 0 23 -20 37 -29 21
-4 -6 -17 11 -32 41 -13 29 -53 109 -89 178 -35 69 -75 146 -88 173 -14 26
-28 47 -32 47 -5 0 -11 24 -15 53 -4 28 -18 86 -30 127 -12 41 -28 108 -35
148 -6 39 -15 72 -18 72 -4 0 -8 35 -9 78 -2 89 -12 162 -23 162 -9 0 -6 85
12 273 6 70 8 130 5 133 -14 14 -56 -138 -57 -203 0 -18 -4 -33 -10 -33 -14 0
-12 -114 2 -128 9 -9 9 -12 -3 -12 -20 0 -16 -131 8 -242 16 -79 26 -95 36
-58 11 44 23 16 26 -62 2 -57 7 -88 18 -100 8 -10 15 -37 16 -65 0 -26 10 -72
23 -103 44 -107 123 -274 138 -292 9 -10 16 -23 16 -29 0 -6 6 -9 14 -6 8 3
17 -1 20 -9 9 -24 7 -31 -4 -14 -8 13 -10 13 -10 -1 0 -9 9 -19 20 -22 11 -3
23 -13 26 -24 17 -50 76 -163 90 -171 14 -8 14 -12 3 -31 -22 -34 -44 -22 -45
24 -1 62 -49 138 -77 123 -12 -6 -23 -11 -24 -10 -11 7 -12 -1 -4 -17 8 -15 7
-20 -5 -25 -22 -9 -23 -8 -17 14 6 22 -26 67 -36 51 -3 -5 -6 10 -6 32 0 33
-9 53 -39 92 -22 28 -78 129 -125 225 -80 163 -130 221 -67 77 14 -31 21 -57
16 -57 -26 0 21 -115 89 -219 64 -97 78 -123 41 -81 -37 42 -43 52 -122 210
-62 125 -62 125 -68 80 -7 -61 -33 -26 -58 79 -11 44 -22 71 -31 71 -8 0 -11
-6 -7 -16 3 -9 3 -20 0 -26 -8 -13 -35 40 -38 77 -2 17 -4 36 -5 43 0 6 -8 12
-17 12 -13 0 -15 -6 -10 -27 3 -16 8 -41 11 -57 53 -330 355 -713 567 -716 9
0 18 -4 20 -8 5 -13 133 -93 233 -145 56 -30 211 -37 249 -12 26 17 26 17 20
179 -6 176 -22 285 -35 231 -6 -25 -7 -22 -8 20 -1 28 -4 61 -7 75 -4 19 -3
22 5 10 5 -8 14 -11 18 -6 4 4 1 13 -7 19 -18 15 -19 37 -2 56 7 7 11 21 8 30
-2 9 -7 38 -11 64 -6 44 -10 108 -29 447 -8 141 -14 205 -25 287 -6 37 -15
136 -21 218 -6 83 -14 151 -18 152 -9 4 -7 87 3 103 18 29 -15 345 -38 363 -8
7 -36 45 -62 85 -67 101 -98 116 -313 147 -182 27 -213 29 -255 13z m625 -311
c0 -23 0 -49 -1 -57 -12 -75 -11 -86 3 -50 19 46 22 -5 5 -95 -8 -45 -8 -60 2
-66 15 -9 0 -91 -16 -89 -10 0 -12 50 -4 130 4 41 2 45 -18 44 -19 0 -20 2
-11 25 11 29 13 168 3 201 -6 20 -5 21 14 11 16 -9 21 -22 23 -54z m20 -457
c-3 -29 0 -50 5 -50 5 0 10 -21 11 -47 1 -51 -14 -113 -28 -113 -12 0 -22 33
-11 39 18 11 24 97 8 113 -10 10 -12 20 -6 29 5 8 9 26 9 40 0 21 7 39 15 39
1 0 0 -22 -3 -50z m-162 -1615 c0 8 46 12 68 6 1 -1 -2 -10 -8 -22 -15 -26 -6
-36 14 -16 8 8 13 16 11 19 -2 2 4 4 15 4 15 0 17 -4 8 -20 -8 -15 -7 -22 8
-33 16 -12 15 -13 -15 -13 -30 0 -32 2 -20 17 13 15 12 15 -8 5 -25 -14 -70
-1 -79 23 -4 8 -13 15 -20 15 -12 0 -12 3 -2 14 9 10 15 11 20 2 4 -6 8 -6 8
-1z"/>
<path d="M2060 2813 c-8 -2 -21 -6 -28 -9 -31 -9 59 -113 93 -107 42 8 47 15
53 72 5 51 -44 69 -118 44z"/>
<path d="M2225 2791 c-8 -17 -16 -47 -17 -68 -2 -21 -6 -40 -10 -43 -12 -9 3
-50 16 -43 6 3 6 0 -1 -7 -11 -12 -15 -11 -27 5 -15 20 -35 -12 -21 -34 7 -12
24 -245 25 -356 2 -78 39 -215 60 -215 25 0 25 62 0 80 -13 9 -20 25 -19 45 1
23 3 25 6 8 16 -84 58 21 49 121 -6 66 -25 116 -27 70 0 -10 -3 -32 -5 -48 -3
-18 0 -32 8 -37 10 -6 10 -11 1 -20 -12 -12 -48 92 -39 114 3 8 5 8 5 -1 1
-21 21 -3 21 20 0 11 8 22 20 25 16 4 20 15 22 47 1 40 1 40 5 6 6 -47 23 -64
23 -23 0 56 -21 188 -31 194 -6 3 -7 27 -3 57 4 30 2 57 -3 64 -6 7 -13 25
-17 41 -8 35 -22 34 -41 -2z"/>
<path d="M3094 2668 c6 -39 46 -141 83 -215 19 -40 50 -43 93 -12 20 15 36 20
55 15 14 -4 56 1 92 10 73 18 113 10 113 -25 0 -24 56 -91 76 -91 8 0 14 -3
14 -8 0 -4 10 -18 23 -32 13 -14 31 -45 41 -70 59 -150 176 -261 176 -168 0 4
7 4 17 1 10 -4 14 -2 9 5 -3 6 -2 14 4 17 6 4 8 16 4 27 -4 14 -2 18 5 14 6
-4 11 -14 11 -22 0 -8 5 -14 10 -14 40 0 -37 141 -128 235 -154 158 -262 255
-281 255 -11 0 -28 9 -39 20 -23 25 -83 50 -119 50 -15 0 -70 11 -121 25 -136
36 -146 35 -138 -17z"/>
<path d="M1215 2562 c-11 -2 -24 -8 -29 -13 -6 -5 -18 -9 -28 -9 -18 0 -53
-16 -74 -35 -6 -6 -50 -23 -97 -39 -102 -33 -111 -47 -79 -124 11 -26 22 -59
26 -74 7 -32 17 -34 52 -12 45 30 144 73 144 64 0 -29 52 -8 66 25 49 118 59
226 19 217z"/>
<path d="M1275 2354 c-8 -21 -24 -57 -35 -79 -28 -57 -29 -76 -3 -86 25 -9 29
2 54 129 14 73 6 92 -16 36z"/>
<path d="M791 2358 c-25 -12 -63 -50 -107 -106 -127 -163 -247 -293 -275 -299
-94 -19 -106 -88 -16 -88 47 0 67 -4 67 -13 0 -8 -10 -11 -30 -7 -18 3 -30 1
-30 -6 0 -6 -8 -8 -21 -4 -38 12 -76 -34 -47 -57 17 -13 19 -18 8 -18 -9 0
-21 5 -28 12 -26 26 -107 -40 -87 -72 4 -6 -8 -10 -28 -10 -66 0 -95 -11 -107
-40 -22 -52 20 -86 73 -59 18 10 17 7 -5 -14 -16 -14 -28 -30 -28 -35 0 -14
-78 -53 -85 -42 -3 5 -15 10 -26 10 -34 0 -26 -67 11 -88 17 -9 33 -27 36 -39
3 -13 19 -26 37 -32 40 -15 56 -1 37 34 -13 24 -11 28 23 63 20 21 37 43 37
50 0 15 38 92 45 92 3 0 -1 -12 -9 -27 -27 -53 -29 -90 -7 -102 74 -40 132 54
90 146 -25 55 -19 67 11 19 27 -45 40 -45 79 -1 34 39 32 54 -12 103 -11 12
-16 22 -9 22 6 0 20 -14 32 -30 25 -36 50 -39 50 -7 1 12 7 33 15 47 19 33 19
69 0 76 -8 4 -15 11 -15 16 0 7 5 7 13 0 33 -28 102 -19 105 13 3 22 38 65
136 170 200 212 241 409 67 323z"/>
<path d="M1579 2308 c0 -35 -1 -152 -1 -260 0 -162 -2 -196 -13 -191 -17 6
-14 -181 3 -214 19 -34 51 -195 50 -247 -1 -34 4 -52 15 -61 8 -6 19 -24 22
-41 9 -38 26 -74 37 -74 23 0 -10 113 -43 143 -17 16 -19 25 -12 56 9 39 6
172 -5 261 -4 30 -4 100 -1 155 4 55 2 118 -3 139 -6 24 -6 41 0 45 20 13 22
68 3 85 -10 9 -21 36 -25 59 -3 23 -9 52 -12 65 -4 12 -2 22 4 22 5 0 9 -6 8
-12 0 -7 4 -14 9 -16 14 -4 19 29 6 38 -6 3 -14 30 -18 58 -8 72 -23 65 -24
-10z"/>
<path d="M1881 2326 c-16 -19 -10 -168 7 -174 9 -3 12 20 12 92 0 101 -1 104
-19 82z"/>
<path d="M1757 2161 c-3 -11 -3 -48 0 -81 5 -50 3 -60 -10 -60 -24 0 -26 -19
-16 -196 9 -175 16 -224 28 -224 4 0 15 -22 25 -50 42 -118 55 -16 27 217 -12
98 -25 225 -28 283 -6 109 -15 150 -26 111z"/>
<path d="M2287 2163 c-12 -19 -4 -90 11 -108 14 -16 14 -18 1 -7 -14 10 -16 5
-17 -49 0 -34 -3 -63 -6 -67 -3 -3 -6 6 -6 20 0 14 -7 31 -16 39 -8 7 -22 25
-30 41 -16 31 -39 39 -30 11 3 -10 6 -34 7 -53 2 -39 26 -256 35 -310 3 -19 5
-52 5 -72 -1 -23 3 -38 10 -38 8 0 8 -4 2 -12 -17 -23 26 -197 48 -195 20 1
18 29 -7 79 -18 35 -19 101 -1 96 6 -3 13 -15 15 -27 5 -34 26 -19 36 25 15
70 18 70 33 -1 24 -113 35 -113 28 0 -8 132 -9 142 -16 150 -4 3 -5 32 -2 64
4 44 2 61 -9 72 -11 10 -13 21 -7 44 17 57 7 225 -12 225 -5 0 -9 -6 -9 -14 0
-21 -21 -31 -31 -15 -5 8 -9 33 -9 56 0 39 -12 63 -23 46z"/>
<path d="M1238 2150 c-4 -8 -12 -33 -19 -55 -11 -39 -34 -94 -67 -165 -24 -52
-22 -490 3 -490 5 0 3 -5 -5 -10 -8 -5 -10 -10 -3 -10 6 0 9 -9 6 -21 -4 -16
-2 -20 8 -17 8 3 19 -2 26 -11 21 -29 28 -1 11 46 -10 29 -13 53 -8 67 7 18 9
15 15 -19 4 -22 10 -44 14 -50 3 -5 7 -21 9 -34 5 -37 22 -65 34 -53 6 6 2 32
-11 73 -47 147 -52 281 -20 546 19 164 21 240 7 203z"/>
<path d="M1300 2140 c0 -5 -6 -7 -13 -4 -15 5 -34 -102 -42 -236 -2 -41 -7
-117 -11 -168 -7 -96 11 -256 27 -246 5 3 9 15 9 27 0 17 2 19 9 7 6 -8 8 -17
5 -21 -14 -23 38 -199 58 -199 14 0 9 45 -7 67 -26 37 -38 259 -25 454 11 162
8 208 -11 178 -5 -8 -9 -9 -9 -3 0 5 7 19 15 30 16 22 21 124 5 124 -5 0 -10
-4 -10 -10z"/>
<path d="M1976 2098 c-10 -63 -4 -98 15 -98 22 0 34 53 24 99 -9 41 -33 40
-39 -1z"/>
<path d="M3877 2052 c-41 -43 -10 -112 50 -112 19 0 20 -3 11 -28 -22 -58 6
-100 44 -65 21 19 18 0 -8 -42 -39 -65 -24 -125 31 -125 60 0 66 7 60 64 -4
42 -3 46 5 21 5 -16 35 -57 65 -90 50 -53 54 -60 35 -63 -24 -4 -46 -43 -37
-66 9 -23 39 -20 78 9 19 13 45 30 59 37 14 7 28 16 31 21 10 14 -22 96 -40
102 -49 15 -87 77 -45 72 67 -8 74 5 28 52 -42 44 -89 55 -131 33 -34 -19 -53
-15 -52 11 0 12 3 16 6 10 2 -7 16 -13 30 -13 18 0 24 4 19 15 -3 8 -1 15 4
15 21 0 9 21 -22 40 -25 15 -43 19 -73 15 -40 -6 -40 -6 -7 11 41 21 40 35 -3
73 -48 42 -100 43 -138 3z"/>
<path d="M2405 2005 c1 -38 3 -85 4 -102 1 -34 41 -51 41 -18 0 8 -5 15 -11
15 -8 0 -8 4 -1 13 5 6 8 23 7 37 -2 14 -4 45 -4 69 -1 33 -4 42 -15 38 -8 -3
-17 -1 -20 6 -2 7 -3 -19 -1 -58z"/>
<path d="M1885 2017 c-4 -23 0 -89 9 -147 8 -58 18 -133 22 -167 4 -35 9 -63
13 -63 3 0 7 -35 7 -78 1 -58 7 -89 23 -120 11 -23 21 -50 21 -62 0 -11 4 -20
9 -20 15 0 24 85 12 107 -5 11 -8 37 -4 57 9 54 -46 442 -69 494 -25 53 -35
53 -43 -1z"/>
<path d="M1820 1871 c0 -84 9 -111 38 -111 25 0 25 0 18 67 -11 102 -56 138
-56 44z"/>
<path d="M1456 1845 c6 -25 8 -38 13 -82 5 -50 61 -11 61 42 0 46 -3 55 -17
55 -10 0 -28 3 -41 6 -21 6 -22 4 -16 -21z"/>
<path d="M1660 1793 c0 -38 -3 -78 -6 -91 -6 -22 -4 -23 27 -20 52 5 39 178
-13 178 -4 0 -8 -30 -8 -67z"/>
<path d="M2417 1823 c-10 -9 -9 -73 1 -73 4 0 5 -25 4 -56 -4 -56 -4 -56 25
-52 15 2 27 8 26 15 -6 30 -14 89 -14 103 -1 55 -21 85 -42 63z"/>
<path d="M1327 1748 c-3 -35 -4 -78 -2 -95 1 -18 3 -40 4 -48 3 -42 31 -12 31
34 0 143 -24 221 -33 109z"/>
<path d="M1856 1735 c-17 -13 -18 -116 -1 -133 24 -24 47 14 42 70 -6 69 -15
82 -41 63z"/>
<path d="M1486 1671 c3 -31 6 -65 6 -76 -1 -20 -1 -20 14 -1 8 11 14 14 14 8
0 -7 5 -12 10 -12 13 0 13 87 0 95 -5 3 -7 12 -4 19 3 8 -4 15 -20 18 -25 5
-25 5 -20 -51z"/>
<path d="M3426 1658 c-3 -40 -9 -101 -12 -134 -6 -62 -6 -62 53 -79 43 -14 69
-30 99 -62 48 -50 97 -60 109 -22 4 12 16 30 26 40 21 21 25 39 8 39 -6 0 -8
8 -5 18 5 13 -9 31 -51 67 -61 52 -78 72 -104 119 -9 17 -24 35 -35 40 -10 6
-23 16 -29 22 -35 41 -52 27 -59 -48z"/>
<path d="M1075 1668 c-42 -23 -69 -60 -51 -70 24 -13 20 -31 -3 -18 -38 20
-43 -15 -6 -37 19 -11 10 -18 -17 -14 -13 2 -9 -11 8 -30 14 -15 13 -19 -8
-40 -23 -23 -27 -66 -6 -52 8 4 9 0 5 -11 -4 -10 -3 -15 3 -11 6 3 10 13 10
21 0 18 16 18 23 1 3 -7 -3 -19 -14 -25 -11 -7 -16 -18 -13 -27 4 -9 0 -15
-10 -15 -10 0 -13 6 -10 15 8 21 -6 19 -22 -2 -11 -15 -12 -12 -3 20 11 42 7
67 -12 67 -7 0 -9 -9 -4 -27 5 -21 1 -31 -17 -46 -17 -14 -18 -17 -5 -13 11 3
16 2 12 -4 -28 -45 -44 10 -20 67 8 20 13 39 9 42 -7 7 -34 -28 -34 -46 0 -7
-6 -10 -14 -7 -8 3 -17 1 -21 -5 -3 -6 1 -11 9 -11 9 0 16 -8 15 -17 0 -11 -3
-13 -6 -5 -8 20 -26 14 -20 -8 3 -13 0 -20 -9 -20 -10 0 -11 6 -4 25 6 15 6
26 0 30 -13 8 -31 -40 -24 -60 4 -8 17 -18 30 -21 13 -3 24 -10 24 -15 0 -5 7
-9 15 -9 8 0 23 -10 34 -21 30 -32 111 33 111 90 0 12 9 21 24 25 48 12 55 29
54 135 0 134 -7 163 -33 149z"/>
<path d="M1673 1652 c-17 -11 -5 -182 13 -182 9 0 14 12 14 34 0 36 14 56 23
34 8 -18 8 73 1 100 -6 22 -28 28 -51 14z"/>
<path d="M2434 1597 c-12 -32 1 -152 16 -152 12 0 14 12 12 58 -1 38 1 56 8
52 6 -3 10 4 10 18 0 14 -7 28 -16 31 -22 8 -24 8 -30 -7z"/>
<path d="M1870 1570 c-9 -6 -11 -20 -5 -56 5 -27 7 -55 6 -61 -1 -8 9 -13 24
-13 23 0 26 4 23 28 -2 16 -8 26 -17 24 -9 -2 -11 3 -6 15 22 53 10 84 -25 63z"/>
<path d="M1353 1562 c-20 -13 -9 -111 16 -135 28 -28 29 -23 21 56 -8 72 -17
91 -37 79z"/>
<path d="M1685 1449 c-19 -30 28 -159 57 -159 23 0 20 78 -2 106 -6 6 -8 24
-4 38 7 28 -36 40 -51 15z"/>
<path d="M1554 1396 c1 -14 6 -29 9 -33 4 -3 7 -28 7 -55 0 -45 2 -48 25 -48
30 0 32 20 7 100 -19 59 -53 85 -48 36z"/>
<path d="M1880 1386 c0 -33 18 -52 22 -23 0 6 4 -10 7 -37 4 -29 12 -51 20
-54 11 -4 13 6 7 49 -3 30 -7 63 -9 74 -4 40 -47 32 -47 -9z"/>
<path d="M3740 1405 c0 -8 -4 -15 -10 -15 -5 0 -10 -9 -10 -19 0 -10 -8 -22
-17 -26 -17 -6 -17 -7 1 -21 11 -8 15 -14 10 -14 -18 0 -37 -88 -30 -138 4
-26 8 -63 10 -82 2 -20 10 -49 19 -66 37 -72 43 -220 11 -271 -45 -73 34 -125
96 -63 18 18 90 8 90 -12 0 -5 9 -8 20 -8 24 0 35 22 25 48 -5 9 -9 23 -11 30
-1 7 -8 20 -16 29 -7 9 -13 21 -13 27 -1 32 -18 97 -26 102 -5 3 -7 9 -5 13 3
4 1 25 -5 46 -16 57 -18 71 -36 200 -19 148 -27 181 -53 223 -20 33 -50 43
-50 17z"/>
<path d="M773 1274 c-3 -8 -9 -11 -14 -8 -18 11 -67 -39 -78 -80 -15 -60 -23
-224 -10 -231 5 -4 7 -16 3 -28 -4 -12 -9 -47 -10 -77 -5 -110 -16 -154 -51
-199 -44 -59 -40 -76 17 -77 65 -1 65 -2 39 -25 -128 -110 -137 -137 -59 -176
64 -33 88 -30 105 11 8 18 26 48 41 65 32 38 47 118 21 108 -10 -4 -27 -2 -39
3 -26 10 -17 12 53 14 73 2 110 77 53 109 -11 6 -11 12 -1 29 9 16 9 22 0 25
-15 5 -18 33 -4 33 6 0 9 9 8 20 -1 11 -8 20 -16 20 -11 0 -10 4 4 20 10 11
15 23 12 26 -3 4 0 19 8 34 13 26 13 247 0 288 -3 7 5 26 17 43 17 22 19 32
10 41 -9 9 -12 8 -12 -7 0 -18 -2 -17 -13 4 -14 28 -75 39 -84 15z"/>
<path d="M1710 1255 c0 -8 6 -15 14 -15 15 0 32 -37 22 -47 -3 -4 -6 1 -6 10
0 10 -4 17 -10 17 -12 0 -12 -6 1 -52 8 -31 15 -38 35 -38 27 0 28 7 8 113 -6
31 -64 42 -64 12z"/>
<path d="M1593 1243 c-24 -5 -30 -18 -13 -28 19 -12 60 -109 48 -116 -14 -9
-1 -29 18 -29 9 0 14 12 15 38 0 37 0 37 15 -13 37 -131 56 -185 65 -185 5 0
9 -9 9 -20 0 -25 21 -70 33 -70 5 0 7 10 4 23 -4 12 -9 42 -13 67 -3 25 -14
68 -24 95 -9 28 -21 68 -25 90 -13 77 -81 161 -70 88 6 -45 0 -35 -15 25 -6
23 -14 41 -18 41 -4 -1 -17 -4 -29 -6z"/>
<path d="M1911 1231 c-13 -8 -10 -116 4 -129 17 -17 35 12 35 57 0 74 -9 91
-39 72z"/>
<path d="M2447 1233 c-6 -12 -9 -183 -3 -183 46 0 56 19 56 105 0 81 -29 123
-53 78z"/>
<path d="M1485 1160 c-3 -6 -10 -8 -15 -5 -21 13 -19 -18 5 -65 47 -92 94 -78
59 17 -20 56 -36 74 -49 53z"/>
<path d="M1756 1102 c-6 -11 47 -162 58 -162 9 0 2 97 -10 145 -6 24 -37 35
-48 17z"/>
<path d="M1925 1023 c4 -27 8 -55 10 -63 1 -8 12 -17 25 -18 17 -3 21 0 17 12
-4 9 -9 38 -13 66 -5 41 -10 50 -26 50 -18 0 -20 -4 -13 -47z"/>
<path d="M2440 962 c0 -86 18 -115 48 -75 27 37 12 147 -20 151 -28 3 -28 3
-28 -76z"/>
<path d="M2438 777 c-4 -84 -2 -89 37 -78 26 7 43 121 21 137 -38 29 -54 12
-58 -59z"/>
<path d="M3785 631 c4 -19 38 -113 50 -138 1 -2 25 3 53 11 29 7 55 9 58 5 6
-10 54 -12 54 -3 0 12 -66 84 -77 84 -16 0 -17 12 -1 28 22 22 -9 37 -78 38
-65 1 -65 1 -59 -25z"/>
<path d="M3899 485 c-8 -8 -31 -15 -51 -17 -44 -3 -45 -6 -16 -44 13 -15 16
-24 9 -19 -11 6 -13 4 -8 -9 4 -10 7 -20 7 -22 0 -2 8 -4 18 -4 10 -1 2 -9
-20 -21 -21 -11 -38 -24 -38 -29 0 -5 -7 -7 -15 -4 -23 9 -18 -15 11 -53 30
-40 43 -41 75 -7 28 29 44 3 28 -44 -20 -53 3 -96 54 -106 28 -6 47 -15 47
-23 0 -19 17 -16 51 8 25 18 44 59 20 45 -5 -3 -14 1 -21 9 -7 8 -16 13 -20
10 -13 -8 -40 6 -40 21 0 8 -6 14 -12 15 -7 0 -23 2 -35 5 -17 3 -20 0 -17
-19 4 -20 4 -21 -5 -2 -10 24 -4 38 15 31 8 -3 14 0 14 6 0 7 4 7 13 -1 16
-13 27 -5 27 21 0 19 15 24 25 8 14 -23 95 -12 95 13 0 29 -60 89 -92 92 -13
1 -30 3 -39 4 -8 0 -24 7 -34 15 -19 13 -18 14 5 10 29 -5 54 12 64 43 9 28
-34 76 -59 67 -8 -4 -21 -1 -28 5 -10 7 -17 7 -28 -4z"/>
<path d="M550 360 c0 -5 -7 -7 -16 -3 -14 5 -16 1 -12 -20 4 -22 3 -25 -8 -16
-7 6 -18 8 -24 4 -13 -8 -13 -45 0 -45 5 0 36 -18 69 -41 83 -57 115 -53 119
14 3 48 -43 117 -68 102 -5 -3 -11 -1 -15 5 -8 13 -45 13 -45 0z"/>
<path d="M380 261 c-31 -9 -59 -73 -41 -95 26 -31 68 -30 110 5 37 29 82 35
66 9 -4 -6 -1 -18 6 -26 8 -10 9 -18 3 -22 -28 -20 13 -61 62 -62 33 0 70 69
43 79 -14 4 -39 29 -61 61 -10 14 -17 21 -17 15 3 -27 -3 -28 -26 -1 -14 16
-25 26 -25 21 0 -4 -7 -2 -15 5 -18 15 -70 21 -105 11z"/>
<path d="M491 168 c-1 -21 -12 -23 -30 -5 -12 10 -13 9 -7 -7 5 -14 3 -17 -10
-12 -11 4 -15 2 -11 -8 4 -10 0 -12 -14 -9 -15 4 -22 -2 -30 -25 -9 -26 -14
-29 -27 -21 -47 29 -78 -10 -37 -46 78 -70 212 36 172 136 -4 10 -6 9 -6 -3z"/>
    </g>
  </g>
</svg>